<svg xmlns="http://www.w3.org/2000/svg" enable-background="new 0 0 64 64" viewBox="0 0 64 64" id="customer"><path d="M61.23 43.59c-.37-1.88-1.12-3.63-2.15-5.18l1.96-1.95L57 32.41l-1.97 1.96c-1.54-1.03-3.29-1.77-5.17-2.14v-2.77h-5.73v2.77c-1.88.38-3.63 1.12-5.17 2.15L37 32.42l-1.24 1.24-2.8 2.81 1.96 1.96c-1.03 1.54-1.77 3.29-2.14 5.17h-2.77v5.73h2.77c.19.95.48 1.87.84 2.74.36.86.8 1.67 1.31 2.43l-1.96 1.96 4.05 4.05 1.96-1.96c1.54 1.02 3.29 1.76 5.17 2.14v2.77h5.73v-2.77c1.88-.38 3.63-1.12 5.17-2.15l1.96 1.96 4.05-4.05-1.97-1.96c1.03-1.55 1.77-3.3 2.15-5.18H64v-5.72H61.23zM47.01 52.78c-3.49 0-6.32-2.83-6.32-6.32 0-3.49 2.83-6.32 6.32-6.32 3.49 0 6.31 2.83 6.31 6.32C53.32 49.95 50.5 52.78 47.01 52.78zM22.63 29.46c5.85 0 10.6-4.75 10.6-10.6 0-5.85-4.74-10.6-10.6-10.6-5.85 0-10.6 4.75-10.6 10.6C12.03 24.71 16.77 29.46 22.63 29.46z"></path><path d="M29.01 50.33V42.6h2.97c.36-1.42.92-2.77 1.67-4.03l-2.1-2.1 3.37-3.38c-3.53-2.29-7.76-3.63-12.29-3.63C10.13 29.46 0 39.59 0 52.08h8.49v-7.62c0-.28.22-.5.5-.5.27 0 .5.22.5.5v7.62h23.07c-.23-.58-.42-1.17-.58-1.75H29.01zM41.46 18.9L40 23.73l5.31-2.98c1.49.46 3.11.73 4.81.73 7.3 0 13.22-4.69 13.22-10.47 0-5.78-5.92-10.47-13.22-10.47-7.3 0-13.22 4.69-13.22 10.47C36.91 14.16 38.68 16.98 41.46 18.9zM43.11 6.97h14.03c.28 0 .5.22.5.5 0 .28-.22.5-.5.5H43.11c-.28 0-.5-.22-.5-.5C42.61 7.2 42.83 6.97 43.11 6.97zM43.11 10.5h14.03c.28 0 .5.22.5.5 0 .28-.22.5-.5.5H43.11c-.28 0-.5-.22-.5-.5C42.61 10.73 42.83 10.5 43.11 10.5zM43.11 14.04h14.03c.28 0 .5.22.5.5 0 .28-.22.5-.5.5H43.11c-.28 0-.5-.22-.5-.5C42.61 14.26 42.83 14.04 43.11 14.04z"></path></svg>