<svg xmlns="http://www.w3.org/2000/svg" data-name="Layer 1" viewBox="0 0 512 512" id="Global"><g data-name="&amp;lt;Group&amp;gt;" fill="#000000" class="color000000 svgShape"><path d="M286.684,167.027A8.612,8.612,0,0,0,280,168.672V142h32.12a7.929,7.929,0,0,0,7.88-8.036V72.783A29.464,29.464,0,0,0,331.518,65.9a27.463,27.463,0,1,0-38.918,0A29.036,29.036,0,0,0,304,72.783V126H272.364A8.289,8.289,0,0,0,264,133.964v90.181a8,8,0,0,0,16,0V181.114a8.679,8.679,0,0,0,3.734,1.639,150.394,150.394,0,0,1,39,13l-26.619,26.861a28.6,28.6,0,0,0-6.623,29.484L308.3,305.527a12.473,12.473,0,0,1-5.4,14.848l-19.625,11.6a28.286,28.286,0,0,0-13.9,26.518c.01.135.023.271.039.405l4.242,34.512a28.336,28.336,0,0,0,10.1,18.45L338,456.746a150.308,150.308,0,0,1-114.456,20.835l26.313-23.594a28.278,28.278,0,0,0,9.4-22.994l-5.042-78.946a7.991,7.991,0,0,0-.109-.9,28.277,28.277,0,0,0-11.631-18.254l-13.226-9.307a28.475,28.475,0,0,0-22.859-4.433l-15.416,3.612A12.45,12.45,0,0,1,176.042,307.7l2.666-10.959a28.614,28.614,0,0,0-11.379-30.066c-17.4-12.107-28-18.452-34.876-21.784A146.083,146.083,0,0,1,194,193.669v30.476a8,8,0,0,0,16,0V133.964A8.289,8.289,0,0,0,201.636,126H170V72.783A29.024,29.024,0,0,0,181.4,65.9a27.534,27.534,0,1,0-38.909,0A29.442,29.442,0,0,0,154,72.783v61.181A7.929,7.929,0,0,0,161.88,142H194v34.461a5.3,5.3,0,0,0-1.91.5A166.2,166.2,0,0,0,89.617,330.643c0,73,47.194,135.179,112.707,157.576a7.913,7.913,0,0,0,4.576,1.5,166.287,166.287,0,0,0,146.286-23.993,7.883,7.883,0,0,0,5.925-4.477,166.466,166.466,0,0,0-72.427-294.22Z" data-name="&amp;lt;Path&amp;gt;" fill="#000000" class="color000000 svgShape"></path><path d="M237,232.145a8,8,0,0,0,8-8V68.376a27.537,27.537,0,1,0-16,0V224.145A8,8,0,0,0,237,232.145Z" data-name="&amp;lt;Path&amp;gt;" fill="#000000" class="color000000 svgShape"></path></g></svg>