<svg xmlns="http://www.w3.org/2000/svg" enable-background="new 0 0 68 68" viewBox="0 0 68 68" id="network-technology"><path d="M27.9 38.9H4.2c-1.8 0-3.2 1.4-3.2 3.2v17.7C1 61.5 2.4 63 4.2 63H15v2h-3.4c-.6 0-1 .4-1 1s.4 1 1 1h8c.6 0 1-.4 1-1s-.4-1-1-1H17v-2h10.8c1.8 0 3.2-1.4 3.2-3.2V42.1C31.1 40.3 29.6 38.9 27.9 38.9zM29.1 59.8c0 .7-.5 1.2-1.2 1.2H4.2C3.5 61 3 60.4 3 59.8V42.1c0-.7.5-1.2 1.2-1.2h23.7c.7 0 1.2.5 1.2 1.2V59.8zM63.8 38.9H40.1c-1.8 0-3.2 1.4-3.2 3.2v17.7c0 1.8 1.4 3.2 3.2 3.2H51v2h-3.4c-.6 0-1 .4-1 1s.4 1 1 1h8c.6 0 1-.4 1-1s-.4-1-1-1H53v-2h10.8c1.8 0 3.2-1.4 3.2-3.2V42.1C67 40.3 65.6 38.9 63.8 38.9zM65 59.8c0 .7-.5 1.2-1.2 1.2H40.1c-.7 0-1.2-.5-1.2-1.2V42.1c0-.7.5-1.2 1.2-1.2h23.7c.7 0 1.2.5 1.2 1.2V59.8zM52 8c0 4.6-9.3 7-18 7-8.7 0-18-2.5-18-7 0-4.5 9.3-7 18-7C42.7 1 52 3.5 52 8z"></path><path d="M52 12.3V20c0 0 0 0 0 0 0 4.6-9.3 7-18 7s-18-2.5-18-7v-7.8c3.5 3.3 10.9 4.8 18 4.8C41.3 17 48.6 15.5 52 12.3zM47.2 36.9h-2.4l-5.4-8.1c.7-.1 1.5-.2 2.2-.3L47.2 36.9z"></path><g><path d="M28.6,28.7l-5.4,8.1h-2.4l5.6-8.4C27.1,28.6,27.9,28.7,28.6,28.7z"></path></g></svg>