<svg xmlns="http://www.w3.org/2000/svg" viewBox="0 0 25 25" id="innovation"><path d="M22,11.5a.5.5,0,0,1-.5.5h-1a.5.5,0,0,1,0-1h1A.5.5,0,0,1,22,11.5Zm-3,0a6.44,6.44,0,0,1-1.67,4.34,8.33,8.33,0,0,0-1.27,3.82A1.5,1.5,0,0,1,14.57,21H10.43a1.5,1.5,0,0,1-1.49-1.33,8.37,8.37,0,0,0-1.28-3.84A6.5,6.5,0,1,1,19,11.5ZM10.43,20H12.5V6a5.5,5.5,0,0,0-4.1,9.16l.06.06a9.54,9.54,0,0,1,1.48,4.34A.49.49,0,0,0,10.43,20Zm4.07,2h-4a.5.5,0,0,0,0,1h4a.5.5,0,0,0,0-1Zm-2-18a.5.5,0,0,0,.5-.5v-1a.5.5,0,0,0-1,0v1A.5.5,0,0,0,12.5,4Zm6,.79-.7.7a.48.48,0,0,0,0,.7.48.48,0,0,0,.7,0l.7-.7a.49.49,0,0,0-.7-.7Zm0,12a.49.49,0,0,0-.7.7l.7.7a.48.48,0,0,0,.7,0,.48.48,0,0,0,0-.7Zm-12,0-.7.7a.48.48,0,0,0,0,.7.48.48,0,0,0,.7,0l.7-.7a.49.49,0,0,0-.7-.7ZM4.5,11h-1a.5.5,0,0,0,0,1h1a.5.5,0,0,0,0-1Zm2-4.81a.48.48,0,0,0,.7,0,.48.48,0,0,0,0-.7l-.7-.7a.49.49,0,0,0-.7.7Z"></path></svg>