<svg xmlns="http://www.w3.org/2000/svg" viewBox="0 0 512 512" id="growth"><path fill-rule="evenodd" d="M121.527 35.197a67.912 67.912 0 0 1 17.828 7.393l22.317-16.158 17.857 17.857-16.158 22.317a67.971 67.971 0 0 1 7.392 17.828l27.198 4.354v25.254l-27.197 4.353a67.932 67.932 0 0 1-7.393 17.829l16.158 22.317-17.857 17.857-22.317-16.158a67.957 67.957 0 0 1-17.828 7.392l-4.353 27.198H91.919l-4.353-27.197a67.918 67.918 0 0 1-17.829-7.393L47.42 176.398l-17.858-17.857 16.158-22.317a67.971 67.971 0 0 1-7.392-17.828l-27.198-4.354V88.788l27.198-4.354a67.923 67.923 0 0 1 7.392-17.828L29.563 44.289l17.858-17.857 22.316 16.157a67.925 67.925 0 0 1 17.83-7.393L91.919 8h25.254l4.354 27.197zM21.356 469.535c-5.508 0-10 4.492-10 10V494c0 5.508 4.492 10 10 10h469.513c5.508 0 10-4.492 10-10v-14.465c0-5.508-4.492-10-10-10h-21.775v-308.79c0-5.507-4.492-10-10-10h-44.83c-5.508 0-10 4.492-10 10v308.79h-55.546V221.956c0-5.508-4.493-10-10-10h-44.83c-5.507 0-10 4.493-10 10v247.579H228.34V290c0-5.508-4.492-10-10-10h-44.831c-5.508 0-10 4.492-10 10v179.535H107.96V355.163c0-5.507-4.492-10-10-10H53.13c-5.508 0-10 4.492-10 10v114.373H21.356v-.001zm7.576-168.238c71.537-24.913 145.239-56.928 218.182-98.503 68.439-39.008 136.197-86.411 200.861-144.232l-4.268 29.313a7.986 7.986 0 0 0 15.812 2.25L467 38.744l-.006-.001a7.98 7.98 0 0 0-8.307-9.093l-51.847 2.814a7.98 7.98 0 0 0 .812 15.938l29.52-1.602c-63.756 56.989-130.523 103.698-197.935 142.12-72.06 41.072-144.875 72.701-215.557 97.316a7.976 7.976 0 1 0 5.252 15.061zm75.614-237.196c-20.608 0-37.314 16.706-37.314 37.314s16.706 37.314 37.314 37.314 37.314-16.706 37.314-37.314-16.706-37.314-37.314-37.314z" clip-rule="evenodd"></path></svg>