<svg xmlns="http://www.w3.org/2000/svg" enable-background="new 0 0 128 128" viewBox="0 0 128 128" id="GlobalBusinessPartner"><path fill="#000000" d="M61.9 102.5l-13.3-3.2-8.1-9.1c-1.7-3.1-4.9-5.2-8.7-5.2h0c-5.5 0-9.9 4.4-9.9 9.9v22.3c0 5.5 4.4 9.9 9.9 9.9h0c5.5 0 9.9-4.4 9.9-9.9v-10.9l1 .8.5.4c.5.4 1.2.7 1.9.9l15.2 2.3c2.1.3 4.2-1 4.7-3.1C65.5 105.3 64.1 103 61.9 102.5zM12.6 97.5c-.6.6-1 1.4-1 2.4L11.3 114c0 1.7 1.3 3.3 3.1 3.4 1.9.2 3.5-1.2 3.7-3l1-10.3v-9.3c0-1.7.3-3.4 1-4.9l-7.1 7.2L12.6 97.5zM32.9 82.2c3.3 0 6.2-2.3 6.8-5.6l1.1-5.4c.6-4.4-2.8-8.3-7.2-8.3h-.6-.6c-4.4 0-7.8 3.9-7.2 8.3l1.1 5.4C26.7 79.8 29.6 82.2 32.9 82.2zM115 99.1c-.1-.9-.6-1.7-1.2-2.3l-.4-.3-10.5-8.7c-.3-.3-.7-.5-1.1-.7-1.7-1.3-3.8-2.1-6.1-2.1h0c-5.5 0-9.9 4.4-9.9 9.9v22.3c0 5.5 4.4 9.9 9.9 9.9h0c5.5 0 9.9-4.4 9.9-9.9v-16.3l2.1 1.2 2.4 12.1c.4 1.8 2.1 3 4 2.6 1.7-.3 2.9-2 2.7-3.7L115 99.1zM67 102.2c0 .1.1.1.1.2 1 1.6 1.3 3.6.9 5.5-.2 1.1-.7 2-1.4 2.8.2 0 .3 0 .5 0l15.2-2.3c.2 0 .3-.1.5-.1V94.9l-3.9 4.5L67 102.2zM94.3 62.5h-.6-.6c-4.4 0-7.8 3.9-7.2 8.3l1.1 5.4c.6 3.2 3.5 5.6 6.8 5.6s6.2-2.3 6.8-5.6l1.1-5.4C102.1 66.4 98.7 62.5 94.3 62.5z" class="color343433 svgShape"></path><path fill="#000000" d="M86.9,83.2c-1.9-1.5-3.2-3.7-3.7-6.2v0l-0.3-1.8c-5.1-1.2-10.4-1.9-16-2.1V56.6h19.7c-0.1,1.5-0.2,3-0.3,4.4
		c1.7-1.3,3.8-2.1,5.9-2.3c0-0.7,0.1-1.4,0.1-2.1h16.7c-0.4,5.7-1.8,11-4,15.9l-0.8,4.4c-0.4,2.1-1.4,4-2.9,5.4
		c0.9,0.4,1.7,0.9,2.5,1.5c0.5,0.3,1,0.6,1.5,1l0.8,0.7c6.7-8.8,10.7-19.9,10.7-31.8C116.8,24.7,93.1,1,64,1
		C34.9,1,11.2,24.7,11.2,53.8c0,11.2,3.5,21.5,9.4,30.1l3.1-3.1c-0.6-1-1.1-2.2-1.3-3.4v0l-1.1-5.6c-0.1-1.1-0.1-2.1,0-3.2
		c-1.3-3.8-2.1-7.8-2.4-11.9h16.9c0,0.9,0.1,1.9,0.1,2.8c2.2,0.5,4.3,1.7,5.8,3.5c0.1,0.1,0.2,0.3,0.3,0.4c-0.3-2.1-0.4-4.3-0.5-6.5
		h19.5v16.4c-5.8,0.2-11.3,0.9-16.6,2.2c-0.2-0.6-0.3-1.2-0.5-1.8l-0.7,3.7c-0.4,1.9-1.2,3.6-2.4,5c0.5,1.5,1.1,2.9,1.7,4.3
		c0.3,0.4,0.7,0.9,1,1.4l7,7.9l4,1l-0.3-0.4c-3.2-4.8-5.9-10.1-8-15.7c4.7-1.1,9.6-1.8,14.7-2v19.7l1.6,0.4c0.3,0.1,0.6,0.2,0.9,0.3
		l3.2-0.8V78.8c5.1,0.2,10,0.8,14.9,2c-2.1,5.7-4.8,10.9-8,15.6l-0.2,0.2l3.2-0.8l7.1-8c0.6-1,1.4-2,2.3-2.8
		C86.4,84.4,86.7,83.8,86.9,83.2z M100.8,27.6c4.8,6.7,7.7,14.7,8.3,23.3H92.3c-0.2-6.3-1.2-12.6-2.8-18.8c3.5-1.1,7.1-2.6,11-4.4
		L100.8,27.6z M97,23c-3,1.4-6,2.6-9.1,3.6c-1.7-5-4-9.9-6.7-14.6C87.3,14.5,92.6,18.3,97,23z M67.1,8.7c2,0.1,4,0.4,5.9,0.8l1,1.6
		c3.6,5.6,6.5,11.3,8.5,17.1c-5,1.2-10.2,1.9-15.4,2.1V8.7z M66.9,36.1c5.8-0.2,11.5-1,17.1-2.3c1.5,5.7,2.4,11.4,2.5,17.2H66.9
		V36.1z M36.1,50.8H18.9c0.6-8.7,3.6-16.7,8.4-23.3l0.4,0.2c3.4,1.7,7.2,3.2,11.1,4.5C37.2,38.3,36.3,44.6,36.1,50.8z M40.5,26.7
		c-3.3-1.1-6.5-2.3-9.5-3.7c4.5-4.8,10-8.6,16.3-11.1C44.6,16.5,42.3,21.5,40.5,26.7z M61,50.9H41.6c0.2-5.7,1.1-11.5,2.5-17.2
		c5.5,1.3,11.2,2.1,16.9,2.3V50.9z M61.3,30.3c-5.1-0.2-10.2-0.9-15.3-2.1c2-5.8,4.9-11.6,8.5-17.3l1-1.6c1.9-0.4,3.8-0.6,5.8-0.7
		V30.3z" class="color343433 svgShape"></path></svg>