<svg xmlns="http://www.w3.org/2000/svg" viewBox="0 0 200 200" id="Computer"><path fill="#9e5e5e" d="M94.756 163.967V152.91c0-.618-.235-1.234-.707-1.704a2.394 2.394 0 0 0-1.704-.706H59.419a2.404 2.404 0 0 0-2.41 2.41v11.057l-12.92 7.138a.851.851 0 0 0-.316.312.83.83 0 0 0-.119.429v1.57c0 .216.083.432.248.597s.381.248.597.248h62.768a.831.831 0 0 0 .596-.248.828.828 0 0 0 .246-.597v-1.57a.847.847 0 0 0-.436-.741l-12.917-7.138zm55.331-116.981a5.697 5.697 0 0 0-4.044-1.676H5.722a5.704 5.704 0 0 0-4.046 1.676A5.707 5.707 0 0 0 0 51.033v90.831c0 1.466.558 2.931 1.676 4.049a5.704 5.704 0 0 0 4.046 1.675h140.321c1.463 0 2.93-.558 4.044-1.675a5.7 5.7 0 0 0 1.678-4.049V51.033a5.7 5.7 0 0 0-1.678-4.047zm-74.205 98.18a2.532 2.532 0 0 1 0-5.061 2.53 2.53 0 0 1 0 5.061zm65.986-7.477H9.897v-82.48h131.971v82.48z" class="color5e889e svgShape"></path><path fill="#9e5e5e" d="M184.754 68.868h-28.738v72.995a9.89 9.89 0 0 1-2.926 7.055 9.9 9.9 0 0 1-7.047 2.92h-11.276v8.699c0 2.215 1.8 4.013 4.013 4.013h51.592a4.014 4.014 0 0 0 4.01-4.013V35.367a4.013 4.013 0 0 0-4.01-4.01H138.78a4.015 4.015 0 0 0-4.013 4.01v5.692h6.426c-.001-.027-.009-.049-.009-.074a3.218 3.218 0 0 1 3.209-3.211h40.361a3.22 3.22 0 0 1 3.209 3.211 3.218 3.218 0 0 1-3.209 3.209h-31.467a9.892 9.892 0 0 1 2.685 5.916h28.782a3.22 3.22 0 0 1 3.209 3.212 3.219 3.219 0 0 1-3.209 3.209h-28.738v5.916h28.738a3.219 3.219 0 0 1 3.209 3.209 3.22 3.22 0 0 1-3.209 3.212zm-18.575 74.283c0 .884-.725 1.606-1.606 1.606-.88 0-1.604-.723-1.604-1.606v-4.813a1.61 1.61 0 0 1 1.604-1.604 1.61 1.61 0 0 1 1.606 1.604v4.813zm-1.607-12.032a4.815 4.815 0 0 1 0-9.629 4.816 4.816 0 0 1 4.816 4.813 4.819 4.819 0 0 1-4.816 4.816z" class="color5e889e svgShape"></path><path fill="#9e5e5e" d="M190.371 25.74h-51.592c-5.298 0-9.63 4.331-9.63 9.627v5.692h4.013v-5.692a5.622 5.622 0 0 1 5.617-5.617h51.592a5.624 5.624 0 0 1 5.616 5.617v125.17a5.623 5.623 0 0 1-5.616 5.617h-51.592a5.622 5.622 0 0 1-5.617-5.617v-8.699h-4.013v8.699c0 5.297 4.332 9.629 9.63 9.629h3.308v.883c0 .82.314 1.642.94 2.269a3.201 3.201 0 0 0 2.269.942h1.604c.821 0 1.643-.314 2.269-.942a3.19 3.19 0 0 0 .94-2.269v-.883h28.926v.883a3.217 3.217 0 0 0 3.211 3.211h1.604c.822 0 1.644-.314 2.27-.942.626-.627.94-1.448.94-2.269v-.883h3.311c5.294 0 9.629-4.332 9.629-9.629V35.367c0-5.296-4.335-9.627-9.629-9.627z" class="color5e889e svgShape"></path><g fill="#9e5e5e" class="color5e889e svgShape"><path d="M89.912 96.217a3.186 3.186 0 0 0-2.235-.919c-.821 0-1.617.322-2.197.881a3.18 3.18 0 0 0-.821-1.452 3.184 3.184 0 0 0-4.437-.038 3.114 3.114 0 0 0-.824-1.451 3.194 3.194 0 0 0-2.237-.918c-.715 0-1.411.246-1.964.678v-7.115c0-.837-.324-1.628-.918-2.22a3.178 3.178 0 0 0-2.237-.917c-.837 0-1.652.333-2.235.917a3.12 3.12 0 0 0-.918 2.22v17.743l-2.347-2.532a3.123 3.123 0 0 0-2.125-1c-.06-.001-.117-.006-.175-.006a3.14 3.14 0 0 0-2.051.768l-.171.149a3.124 3.124 0 0 0-1.063 1.997 3.14 3.14 0 0 0 .559 2.19l8.442 11.896c.119.805.49 1.546 1.074 2.131a3.787 3.787 0 0 0 2.696 1.115H84.41a3.79 3.79 0 0 0 2.696-1.115 3.785 3.785 0 0 0 1.105-2.433l2.119-7.159c.165-.557.291-1.125.378-1.697.081-.571.124-1.153.124-1.729v-7.77c0-.834-.327-1.621-.92-2.214z" fill="#ff0101" class="color000000 svgShape"></path><path d="M61.859 82.746c0-5.624 4.56-10.186 10.183-10.186 5.625 0 10.186 4.563 10.186 10.186 0 3.733-2.018 6.99-5.014 8.766-.019 0-.036-.006-.054-.006-.391 0-.778.06-1.149.17v-1.673c2.572-1.414 4.342-4.118 4.342-7.257 0-4.583-3.727-8.312-8.312-8.312-4.582 0-8.309 3.729-8.309 8.312 0 3.139 1.767 5.841 4.34 7.257v2.127a10.19 10.19 0 0 1-6.213-9.384zm15.756 0a5.56 5.56 0 0 0-11.12 0 5.53 5.53 0 0 0 1.579 3.873v-.735c0-.688.19-1.339.518-1.924a3.615 3.615 0 0 1-.222-1.214 3.69 3.69 0 0 1 3.686-3.686 3.688 3.688 0 0 1 3.683 3.686c0 .438-.089.85-.229 1.239.318.577.503 1.22.503 1.898v.762a5.545 5.545 0 0 0 1.602-3.899z" fill="#ff0101" class="color000000 svgShape"></path></g></svg>