<?xml version="1.0" encoding="UTF-8"?>
<svg id="DeveloperTeam" xmlns="http://www.w3.org/2000/svg" viewBox="0 0 817.07 888.91">
  <defs>
    <style>
      .cls-1 {
        fill: #8c0e0e;
      }

      .cls-1, .cls-2, .cls-3, .cls-4, .cls-5, .cls-6, .cls-7, .cls-8, .cls-9, .cls-10, .cls-11, .cls-12, .cls-13, .cls-14, .cls-15, .cls-16, .cls-17 {
        stroke-width: 0px;
      }

      .cls-2 {
        fill: #e9b8b8;
      }

      .cls-3 {
        fill: #fcc;
      }

      .cls-4 {
        fill: #f7f7f7;
      }

      .cls-5, .cls-18 {
        fill: #700b0b;
      }

      .cls-6 {
        fill: #ff0101;
      }

      .cls-7 {
        fill: #fca2a2;
      }

      .cls-8 {
        fill: #f42a2a;
      }

      .cls-9 {
        fill: #fff;
      }

      .cls-10 {
        fill: #fcb1b1;
      }

      .cls-11 {
        fill: #f2f0f0;
      }

      .cls-12 {
        fill: #d3d3d3;
      }

      .cls-18 {
        stroke: #fff;
        stroke-miterlimit: 10;
        stroke-width: .5px;
      }

      .cls-13 {
        fill: #ff7e7e;
      }

      .cls-14 {
        fill: #ffcaca;
      }

      .cls-15 {
        fill: #f2f2f2;
      }

      .cls-16 {
        fill: #f55;
      }

      .cls-17 {
        fill: #ff5050;
      }
    </style>
  </defs>
  <path class="cls-16" d="m156.4,263.61l-.3-1.9h-1.9c-37,0-49-11.9-49.1-12l-1.6-1.8-1.6,1.8c-.1.1-12,12-49.1,12h-1.9l-.3,1.9c-.1.6-7.9,60.2,51.9,90.8l1,.5,1-.5c60-30.6,51.9-90.2,51.9-90.8h0Zm-9,36.9c-7.4,21.4-22.2,38-44,49.4-21.8-11.4-36.6-28-44-49.4-5.4-15.7-5.1-29.4-4.7-34.3,30.8-.4,44.5-8.6,48.7-12,4.2,3.3,17.9,11.6,48.7,12,.4,5,.7,18.6-4.7,34.3Zm67.7-113.5l-2.1-5.5c-1.9-.2-3.7-.7-5.5-1.3l-4.3,4-12.4-8.9,2.4-5.4c-1.2-1.5-2.2-3.1-3-4.8l-5.9-.2-2.5-15.1,5.5-2.1c.2-1.9.7-3.7,1.3-5.5l-4-4.3,8.9-12.5,5.4,2.4c1.5-1.2,3.1-2.2,4.8-3l.2-5.9,15.1-2.5,2.1,5.5c1.9.2,3.7.7,5.5,1.3l4.3-4,12.4,8.9-2.4,5.4c1.2,1.5,2.2,3.1,3,4.8l5.9.2,2.5,15.1-5.5,2.1c-.3,1.9-.7,3.7-1.3,5.5l4,4.3-8.9,12.5-5.4-2.4c-1.5,1.2-3.1,2.2-4.8,3l-.2,5.9-15.1,2.5Zm-8.6-11.6l1.2.5c2.2.9,4.6,1.4,7,1.6l1.3.1,1.8,4.7,8.3-1.4.2-5,1.2-.5c2.2-1,4.2-2.3,6.1-3.8l1-.8,4.6,2.1,4.9-6.8-3.5-3.7.5-1.2c.9-2.2,1.4-4.6,1.6-7l.1-1.3,4.7-1.8-1.4-8.3-5-.2-.5-1.2c-1-2.2-2.3-4.2-3.8-6.1l-.8-1,2.1-4.6-6.8-4.9-3.7,3.4-1.2-.5c-2.2-.9-4.6-1.4-7-1.6l-1.3-.1-1.8-4.7-8.3,1.4-.2,5-1.2.5c-2.2,1-4.2,2.3-6.1,3.8l-1,.8-4.6-2.1-4.9,6.8,3.5,3.7-.5,1.2c-.9,2.2-1.4,4.6-1.6,7l-.1,1.3-4.7,1.8,1.4,8.3,5,.2.5,1.2c1,2.2,2.3,4.2,3.8,6.1l.8,1-2.1,4.6,6.8,4.9,3.7-3.4Zm10.4-7c-3.4,0-6.8-1.1-9.6-3.1-7.5-5.3-9.2-15.7-3.9-23.2,5.3-7.5,15.7-9.2,23.2-3.9,3.6,2.6,6,6.4,6.8,10.8.7,4.4-.3,8.8-2.8,12.4-2.6,3.6-6.4,6-10.8,6.8-1.1.1-2,.2-2.9.2h0Zm0-29.1c-3.9,0-7.7,1.8-10.1,5.2-1.9,2.7-2.7,6-2.1,9.3s2.3,6.1,5,8,6,2.7,9.3,2.1c3.3-.6,6.1-2.3,8-5s2.7-6,2.1-9.3-2.3-6.1-5-8c-2.2-1.5-4.7-2.3-7.2-2.3h0Zm477.6,210.7l-4.7-12.3c-5-.6-10-1.7-14.7-3.4l-9.6,9-26-18.5,5.4-12c-3.1-3.9-5.8-8.2-8-12.8l-13.1-.4-5.3-31.5,12.3-4.7c.6-5,1.7-10,3.4-14.7l-9-9.6,18.5-26,12,5.4c3.9-3.1,8.2-5.8,12.8-8l.4-13.1,31.5-5.3,4.7,12.3c5,.6,10,1.7,14.7,3.4l9.6-9,26,18.5-5.4,12c3.1,3.9,5.8,8.2,8,12.8l13.1.4,5.3,31.5-12.3,4.7c-.6,5-1.7,10-3.4,14.7l9,9.6-18.5,26-12-5.4c-3.9,3.1-8.2,5.8-12.8,8l-.4,13.1-31.5,5.3Zm-20.8-22.1l1.6.6c5.3,2,10.9,3.3,16.6,3.8l1.8.2,4.3,11.2,22.4-3.8.4-12,1.6-.7c5.2-2.3,10.1-5.4,14.5-9.1l1.3-1.1,11,4.9,13.2-18.5-8.2-8.8.6-1.6c2-5.3,3.3-10.9,3.8-16.6l.1-1.8,11.2-4.3-3.8-22.4-12-.4-.7-1.6c-2.3-5.2-5.4-10.1-9.1-14.5l-1.1-1.3,4.9-11-18.5-13.2-8.8,8.2-1.6-.6c-5.3-2-10.9-3.3-16.6-3.8l-1.8-.1-4.3-11.2-22.4,3.8-.4,12-1.6.7c-5.2,2.3-10.1,5.4-14.5,9.1l-1.3,1.1-11-4.9-13,18.5,8.2,8.8-.6,1.6c-2,5.3-3.3,10.9-3.8,16.6l-.1,1.8-11.2,4.3,3.8,22.4,12,.4.7,1.6c2.3,5.2,5.4,10.1,9.1,14.5l1.1,1.3-4.9,11,18.5,13.2,8.6-8.3h0Zm23.6-20.6c-7.3,0-14.6-2.2-21-6.7-16.3-11.6-20.1-34.3-8.5-50.6,11.6-16.3,34.3-20.1,50.6-8.5s20.1,34.3,8.5,50.6c-7.1,9.9-18.3,15.2-29.6,15.2Zm.1-66.9c-9.6,0-19.1,4.5-25,12.9-4.8,6.7-6.6,14.8-5.3,22.9,1.4,8.1,5.8,15.1,12.5,19.9,13.8,9.8,33,6.6,42.8-7.2,4.7-6.7,6.6-14.8,5.3-22.9-1.4-8.1-5.8-15.1-12.5-19.9-5.5-3.9-11.7-5.7-17.8-5.7h0Zm-489.8,334.6c-4.8-13.5-10.3-28.7-4.2-44.3,8.2-21-9.2-31.8-24.5-41.5-13.2-8.2-25.6-16-21.4-28.9,4.6-14,4.3-24.8-.9-31.9-4.4-6-12.2-9.2-22.6-9.1-8.3.1-15.7-10.1-23.6-20.8-9.3-12.6-18.8-25.6-30.8-22.7-2.1.5-3.8,1.7-4.8,3.6-4.2,7.9,2.4,26.7,9.5,46.7,7.6,21.6,16.3,46,10.6,56.4-6.2,11.4,5,21.8,16.9,32.9,12.6,11.7,26.9,25,23.1,41.7-3.6,15.6-4.4,21.4-2.2,24.8,1.7,2.7,5.2,3.3,10.5,4.3,3.6.7,8.2,1.5,13.8,3.3,24.1,7.5,31.1,23.1,31.2,23.3l.3.7.7-.1c11.6-1.8,18.4-5.1,21.6-10.4.2-.3.3-.6.5-.9,3.4-7.1.1-16.4-3.7-27.1h0Z"/>
  <path class="cls-8" d="m146,545.21c4,6.2,6.9,11.6,6.6,19.2-.2,7.1-1.3,14.1-1.9,21.1-.1,1.5-.2,2.9-.3,4.3-2-1.7-3.9-3.4-5.9-5.1-.9-.1-1.8-.1-2.8-.1,2.8,2.3,5.7,4.8,8.5,7.3-.3,4.9-.4,9.8-.4,14.7,0,2.9-.1,6,.1,8.9-2.6-1.6-5.3-3.2-7.8-4.8-7.8-4.8-15.1-9.3-20.7-11.7-4.3-1.8-9.1-3.4-13.7-4.9-12-3.9-24.3-7.9-28.4-16.4-2.1-4.4-1.9-9.7.6-16.1,6.3-16.5.4-19.3-9.5-24.1-7.2-3.5-17-8.2-26.8-20.1-4.3-5.2-8.1-9.7-11.5-13.6-10.1-11.9-15.7-18.4-15-22.2.2-.9.7-1.7,1.7-2.5.5-.4,1.1-.8,1.9-1.2,3.8-2.1,7.6-.5,11.9,1.3,5.8,2.4,12.9,5.5,22.8.4,7.8-4,16.5-7.7,21.7-4.7,3.6,2,5.7,7.2,6.4,15.7.2,2.7,1.1,4.6,2.6,5.7,2.2,1.6,5.6,1.4,9.5.6,2.7,3.7,6.2,5.5,10.4,7,5.9,2.1,10.3,4,14.6,8.8,9.2,10.4,18.1,21,25.4,32.5h0Z"/>
  <path class="cls-9" d="m114.1,561.71c-6-4-11.2-13.7-16.2-23.1-6.8-12.8-13.9-26-23.6-25.7-15.6.4-29.5-18-29.7-18.1l-1.3,1c.6.8,14.6,19.2,31,18.8,8.7-.2,15.6,12.5,22.1,24.9,5.1,9.5,10.4,19.4,16.7,23.7,3.8,2.5,10.8,7.6,19.1,14.1v-2.1c-7.3-6.1-13.8-10.7-18.1-13.5h0Z"/>
  <path class="cls-16" d="m641.1,685.61s9-22.4-7.4-54.2c-16.5-31.8-29.8-26.9,9.9-51.4s.2-101.5,34-111.3,63.1-134.5,88.8-118.6-8.6,77,9.8,95.4c18.3,18.4,20.8,41.7-17.1,60.6-37.9,18.9,26.9,91.1-24.5,113.1s-36.6,108.3-93.5,66.4h0Z"/>
  <path class="cls-9" d="m656.8,709.31c-.1-.3-5.6-28.9,11.9-65.9,17.8-37.7,26.3-78.9,22.8-110.3-1.9-17,9-23.6,19.5-30,10.4-6.3,21.1-12.9,20.5-29.6-.5-15.1,5.9-50.5,6.1-52l2.3.4c-.1.4-6.6,36.7-6.1,51.5.6,18.1-10.7,25-21.6,31.6-10.4,6.3-20.1,12.3-18.4,27.8,3.6,31.7-5,73.4-23,111.5-17.1,36.3-11.8,64.2-11.7,64.5l-2.3.5h0Z"/>
  <path class="cls-1" d="m793.3,523.51c14.3-6.8,29.5-3.7,21.6,10.6s-19.7,15.4-17.5,26.7,8,23.6-10.6,30.8c-18.6,7.1-27.3,5.9-38.6,26.8-11.4,20.9-15.3,36.4-34.8,31.4-19.5-5.1-3.3-30.8,6.8-41.6,0,0,13.7-11.6,13.5-32.5s-8.8-34.9,18.2-33.5c27,1.2,31.7-14.1,41.4-18.7h0Z"/>
  <path class="cls-9" d="m710.3,664.41c.8-2.7,19.6-67.4,35-74.4,15.7-7.2,24.2-26,27.9-36.5,4.8-13.7,25.3-16.4,26.1-16.5l.3,2.3c-.2,0-19.9,2.6-24.2,14.9-4.6,13.3-13.4,30.7-29.1,37.9-14.4,6.6-33.5,72.3-33.7,73l-2.3-.7Zm-495.3-52.1c-30.8-7.7-31.2-24.3-31.6-40.3-.3-13.1-.6-25.5-17.3-33.1-22.1-10.1-22.6-28.8-23.1-45.3-.4-12.3-.7-23.9-9.9-30.2-22.1-15.1-40.8-51.7-41-52.1l1.7-.9c.2.4,18.6,36.5,40.4,51.4,10,6.8,10.4,18.9,10.7,31.7.5,16.7,1,34.1,22,43.6,17.7,8.1,18.1,21.7,18.4,34.8.4,16,.8,31.2,30.2,38.5l-.5,1.9h0Z"/>
  <path class="cls-4" d="m173.5,597.51h505.9V232.31c0-5.2-4.2-9.5-9.5-9.5H183c-5.2,0-9.5,4.2-9.5,9.5v365.2h0Z"/>
  <path class="cls-18" d="m660.57,529.42H191.37V241.12h469.2v288.3Z"/>
  <path class="cls-15" d="m679.4,543.41H173.7l-55.4,206.9h616.4l-55.3-206.9Z"/>
  <path class="cls-18" d="m192.8,579.71h31.1c1.3,0,2.3,1,2,2.1l-3,13.5c-.2.8-1,1.4-2,1.4h-31.6c-1.3,0-2.3-1-2-2.2l3.5-13.5c.2-.7,1-1.3,2-1.3Zm45.3,0h23.5l-3.1,17.1h-24l3.6-17.1Zm35.2,0h23.5l-2.4,17.1h-24l2.9-17.1Zm35.3,0h23.5l-1.8,17.1h-24l2.3-17.1Zm35.2,0h23.5l-1.1,17.1h-24l1.6-17.1Zm35.2,0h23.5l-.4,17.1h-24l.9-17.1Zm282,0h-35.3l3.8,17.1h35.9l-4.4-17.1Zm-47,0h-23.5l3.1,17.1h24l-3.6-17.1Zm-35.2,0h-23.5l2.4,17.1h24l-2.9-17.1Zm-35.3,0h-23.5l1.8,17.1h24l-2.3-17.1Zm-35.2,0h-23.5l1.1,17.1h24l-1.6-17.1Zm-35.2,0h-23.5l.4,17.1h24l-.9-17.1Zm-58.8,0h23.5l.3,17.1h-23.8v-17.1Zm-231.8,29.8h49l-2.8,17.6h-50l3.8-17.6Zm486.1,0h-60.6l3.4,17.6h61.9l-4.7-17.6Zm-72.8,0h-24.2l2.7,17.6h24.8l-3.3-17.6Zm-36.4,0h-24.2l2,17.6h24.8l-2.6-17.6Zm-36.4,0h-24.2l1.4,17.6h24.7l-1.9-17.6Zm-36.4,0h-24.2l.7,17.6h24.7l-1.2-17.6Zm-311.5,31.3h50.2l-3.7,17.5h-51.1l4.6-17.5Zm62.7,0h25.1l-2.9,17.5h-25.6l3.4-17.5Zm37.7,0h188.1l.7,17.5h-191.6l2.8-17.5Zm200.7,0h25.1l1.4,17.5h-25.6l-.9-17.5Zm37.6,0h25.1l2.1,17.5h-25.6l-1.6-17.5Zm37.7,0h25.1l2.7,17.5h-25.5l-2.3-17.5Zm37.6,0h25.1l3.4,17.5h-25.5l-3-17.5Zm37.6,0h50.2l4.6,17.5h-51.1l-3.7-17.5Zm-176.4-31.3h-24.1v17.6h24.5l-.4-17.6Zm-36.4,0h-24.3l-.7,17.6h24.8l.2-17.6Zm-36.4,0h-24.3l-1.4,17.6h24.8l.9-17.6Zm-36.4,0h-24.3l-2.1,17.6h24.8l1.6-17.6Zm-36.4,0h-24.3l-2.8,17.6h24.8l2.3-17.6Zm-36.4,0h-24.3l-3.4,17.6h24.7l3-17.6Zm-74.4-40.5l4-15.2h11.4l-3.7,15.2h-11.7Zm26.8-15.2h22.8l-3.1,15.2h-23.3l3.6-15.2Zm34.3,0h22.8l-2.6,15.2h-23.2l3-15.2Zm34.2,0h22.8l-2,15.2h-23.2l2.4-15.2Zm34.2,0h22.8l-1.4,15.2h-23.2l1.8-15.2Zm34.2,0h22.8l-.8,15.2h-23.2l1.2-15.2Zm34.2,0h22.8l-.2,15.2h-23.2l.6-15.2Zm34.2,0h22.8l.4,15.2h-23.2v-15.2Zm34.2,0h22.8l1,15.2h-23.2l-.6-15.2Zm34.2,0h22.9l1.5,15.2h-23.2l-1.2-15.2Zm34.3,0h22.8l2.2,15.2h-23.2l-1.8-15.2Zm34.2,0h22.8l2.8,15.2h-23.2l-2.4-15.2Zm34.2,0h22.8l3.4,15.2h-23.2l-3-15.2Zm34.2,0h22.8l4,15.2h-23.2l-3.6-15.2Z"/>
  <path class="cls-12" d="m718.6,766.41H134.4c-8.9,0-16.1-7.2-16.1-16.1h616.4c0,8.9-7.2,16.1-16.1,16.1h0Zm-220.4-83c-.6-3.6-3.8-6.3-7.4-6.3h-128.5c-3.7,0-6.8,2.7-7.4,6.3l-8,48.5c-.8,4.6,2.8,8.8,7.4,8.8h144.4c4.7,0,8.2-4.2,7.4-8.8l-7.9-48.5h0Z"/>
  <path class="cls-4" d="m223,265.61h52.3v5.4h-52.3v-5.4Zm67,40.3h37.7v5.4h-37.7v-5.4Zm43.6,0h25v5.4h-25v-5.4Zm-110,101.4h25v5.4h-25v-5.4Zm140-101.4h60.5v5.4h-60.5v-5.4Zm-140,81.1h38.9v5.4h-38.9v-5.4Zm54.2,40.4h23.7v5.4h-23.7v-5.4Zm-54.2,0h47v5.4h-47v-5.4Zm0,20.2h25.9v5.4h-25.9v-5.4Zm61.9-182h37.1v5.4h-37.1v-5.4Zm0,60.5h37.1v5.4h-37.1v-5.4Zm-18.6,20.1h15.9v5.4h-15.9v-5.4Zm-15.8,20.5h35.6v5.4h-35.6v-5.4Zm41,0h49.2v5.4h-49.2v-5.4Zm-68.5-20.3h37.1v5.4h-37.1v-5.4Zm0,20.3h22v5.4h-22v-5.4Zm66.7-20.3h20.8v5.4h-20.8v-5.4Zm-66,121.3h20.8v5.4h-20.8v-5.4Zm-.8-161.8h37.1v5.4h-37.1v-5.4Zm32.8,101.4h37.1v5.4h-37.1v-5.4Zm.5,40.3h37.1v5.4h-37.1v-5.4Zm65.9,0h37.1v5.4h-37.1v-5.4Zm-99.2-121.5h52.9v5.4h-52.9v-5.4Zm247.9-60.5h37.1v5.4h-37.1v-5.4Zm-132.2,202.1h37.1v5.4h-37.1v-5.4Zm180.8-202.1h24.8v5.4h-24.8v-5.4Zm84.1,20.2h24.8v5.4h-24.8v-5.4Zm-271.5-20.2h47.3v5.4h-47.3v-5.4Zm184.2,20.2h47.3v5.4h-47.3v-5.4Zm-58,20.1h47.3v5.4h-47.3v-5.4Zm-61.5,20.2h47.3v5.4h-47.3v-5.4Zm114.7-20.2h33.6v5.4h-33.6v-5.4Zm-97.2-40.3h47.3v5.4h-47.3v-5.4Zm-53.9,60.5h27.7v5.4h-27.7v-5.4Zm-21.7,81.5h27.7v5.4h-27.7v-5.4Zm49.4-142h17.3v5.4h-17.3v-5.4Zm-56,60.5h17.3v5.4h-17.3v-5.4Zm242.9-40.3h17.3v5.4h-17.3v-5.4Zm-352.5,0h27.1v5.4h-27.1v-5.4Zm72.3,101.3h21.4v5.4h-21.4v-5.4Zm-38.5-101.3h8.7v5.4h-8.7v-5.4Zm179.4,0h72.3v5.4h-72.3v-5.4Zm-69.3,161.8h72.3v5.4h-72.3v-5.4Zm-95-161.8h8.9v5.4h-8.9v-5.4Zm134,0h23.6v5.4h-23.6v-5.4Zm23.7,20.1h23.6v5.4h-23.6v-5.4Zm-121.6,161.8h23.6v5.4h-23.6v-5.4Zm41.4-181.9h50.3v5.4h-50.3v-5.4Zm-46.9,121.8h29.4v5.4h-29.4v-5.4Zm-1.8,40h14.7v5.4h-14.7v-5.4Zm24.2-161.8h17.3v5.4h-17.3v-5.4Zm-58.2,20.1h17.3v5.4h-17.3v-5.4Zm3.4,81.2h17.3v5.4h-17.3v-5.4Zm18.1-101.3h30.2v5.4h-30.2v-5.4Z"/>
  <path class="cls-17" d="m541.4,326.31s8.8,14.9,12.5,17.3c5,3.3,1.9,6.6-.5,6.7-2.4,0-14.6.9-17.3-2.2s-4-12.2-6.5-14.6-5.1-11.9,1.2-14.2c5.5-2.1,10.6,7,10.6,7h0Z"/>
  <path class="cls-14" d="m537.5,319.81s10.1,17.5,11.8,20c1.7,2.6-3.3,2.6-6.4,1.4-3.1-1.2-10.9-13.7-12-16-1.3-2.7-.2-5.8-.2-5.8l6.8.4h0Z"/>
  <path class="cls-17" d="m527.3,329.11l2.4,17.9,1.2.1-.4-12.9-3.2-5.1Zm-73.2-2.8s8.8,14.9,12.5,17.3c5,3.3,1.9,6.6-.5,6.7-2.4,0-14.6.9-17.3-2.2s-4-12.2-6.5-14.6-5.2-12.2,1.2-14.2c5.6-1.8,10.6,7,10.6,7h0Z"/>
  <path class="cls-14" d="m450.8,319.81s9.5,17.4,11.3,20c1.7,2.6-3.3,2.6-6.4,1.4-3.1-1.2-10.9-13.7-12-16-1.3-2.7-.2-5.8-.2-5.8l7.3.4h0Z"/>
  <path class="cls-17" d="m440.1,329.11l2.3,17.9,1.3.1-.4-12.9-3.2-5.1Z"/>
  <path class="cls-14" d="m415.1,190.61l79.6,36.3s8.9,2.9,9.9,12.8c3.1,30.8,26.1,79.6,26.1,79.6,7.4,3.6,6.8.5,6.8.5-4.7-15-10.3-76.6-12.4-101.3-.4-5.2-.7-8.8-.8-10,0-.8-.9-1.8-2.4-3-10.9-8.9-55.9-27.2-55.9-27.2-33.5-.9-50.9,12.3-50.9,12.3h0Z"/>
  <path class="cls-14" d="m400.1,206.21c2.5,21.5,33.2,19.1,33.2,19.1h37.2s-9.8,21.8-13.6,40.1c-4,19.5-13.5,53.9-13.5,53.9,0,0,.6,1.2,7.4.5,0,0,29.2-58.2,40.4-72.9,2.4-3.1,9.3-20.3,10.5-30.5.4-3.4.2-6.1-1.1-7.2-1.3-1.1-4.3-3.1-8.2-5.6-11.7-7.4-31.9-18.7-43.2-21.2-15.1-3.4-39-9.8-39-9.8,0,0-12.6,12.1-10.1,33.6h0Z"/>
  <path class="cls-1" d="m425.4,40.41s-5.6-10.6-2.9-21.8c2.7-11.3,13.2-22.5,28.5-17.3s27.7,17,18.5,30.8c-9.2,13.7,8.3,20,3.8,26.5s-2.8,13.4-.9,14.9,8,6.9,7.3,13.4c-.7,6.4-29.7-18.7-29.7-18.7,0,0-15.7-31.9-24.6-27.8Z"/>
  <path class="cls-6" d="m472.1,175.61s-2.3,11.2-61.8-2.9c0,0,19.9-6.6,61.8,2.9Z"/>
  <path class="cls-9" d="m409.6,175.81c-.9,1.8-1.8,3.5-2.8,5.3,21.7.6,43.5,1.3,65.2,1.9-3.4-11.5-2.3-27.1-1.7-38.9.7-14.5,8.7-24.5,7.9-39.1,4.3.7,5,.8,9.3,1.5-6.6-18.8-8.8-28.1-29.3-35.3-6.7-2.4-11-2.8-18.2-2.2-23.7,2-30.8,2.2-42.5,23.7,18.2,2.9,15.2,9.4,20.7,27.6,2.7,8.8,5.5,18.7,4.1,28-1.4,9.1-12.7,19.2-12.7,27.5h0Z"/>
  <path class="cls-14" d="m447.4,75.71c-9.7-1.8-7.6-7.2-7.6-7.2,0,0,.4-3,.6-6.9,0-1,.1-2,.1-3.1,0-1.6-.1-3.2-.3-4.8-.8-6.5,17.6-2.6,17.6-2.6,0,0-1.1,13.2,1.5,17.1,2.5,4-2.2,9.4-11.9,7.5h0Z"/>
  <path class="cls-14" d="m428.9,68.51s19.6,22.6,26.8,27.8c0,0,8.3-7.5,3.2-27.3,0,0-9.4-4.8-30-.5Zm.6-54.4s-10.2,19.6-.1,38.1,29.9-8.1,31.1-11.2c1.3-3.1,8.1-20.8-5.4-26.1-13.5-5.4-22.7-6.1-25.6-.8h0Z"/>
  <path class="cls-10" d="m449.1,54.21s-1.8,3.9-8.7,7.4c0-1,.1-2,.1-3.1,0,0,4.7-.5,8.6-4.3h0Z"/>
  <path class="cls-14" d="m346.4,158.21s-4.8,2.1-7.1,1.2c-2.3-1-5.8-1.2-6.9-1.2-1.5,0-6.2-1.7-6.1.2.1,1.8,7.6,3.1,9.1,3.7,1.5.6-4.6,3.9-5.2,5.4s6.4,11.3,10.3,8.5,6-8.4,6.8-8.8c.8-.4,2.9-1.9,2.9-1.9l-3.8-7.1h0Z"/>
  <path class="cls-14" d="m331,166.61s-11.3,9.4-11.5,10.7.4,1.9,1.5,1c1.1-.8,11.2-8.8,11.2-8.8,0,0-11.3,13.4-11.7,14.4-.2.6.9,1.8,1.5,1.4.6-.4,12.7-13,12.7-13,0,0-10.6,12.5-10.6,13.5-.1.8,1.2,1.7,2.1.8s11.4-11.9,11.4-11.9c0,0-7.1,9.6-6.6,10.5.3.5,1.2,1.6,2.9-.9s6.5-8.1,6.5-8.1l-9.4-9.6h0Z"/>
  <path class="cls-1" d="m466.6,225.21h-33.3s-30.7,2.5-33.2-19.1c-2.5-21.5,10.1-33.5,10.1-33.5,0,0,16.2,4.3,30.4,7.7,7.1-1.5,15.6-2.5,25.6-2.2,0,0,60,19.8,58.2,30.3,0,.1-25.1-13.3-57.8,16.8Z"/>
  <path class="cls-15" d="m444.9,188.01l63.6-1-32.1,16.3-31.5-15.3Z"/>
  <path class="cls-9" d="m464.7,179.81s-14.3,5.5-31.8.5l-.8-6.5,36.1,2-3.5,4Z"/>
  <path class="cls-12" d="m476.4,203.31l-31.5-12.2v-3.1l34,12.2-2.5,3.1Z"/>
  <path class="cls-16" d="m464.4,182.91c-.2,2.3,2.2,4,4.4,3.1l3.7-1.6c1.1-.5,1.8-1.6,1.6-2.8-1.5-9.6-4.8-47,0-53.5,1.8-2.4,2.9-4.5,3.5-6.3,3.2,8.2,7.1,18.8,8.7,24.5l30,40,10.1,2.6c-12.6-30.3-22.7-46.3-22.7-46.3-2-5.3-7.6-21.3-12.6-35.5-3.2-9-6-17.3-7.6-21.7-.8-2.3-2.3-4.2-4.4-5.4-4.7-2.8-12.4-7.2-19.4-10.6h-.1c-.2-.1-.4-.2-.7-.3,13.4,20.1,8.2,77.2,5.5,113.8q0-.1,0,0Zm-49.6-112.2c-4.3.7-14.9,11-20.5,21.4-6.4,11.9-13,25.4-17.9,29.8-9,8.2-34.3,37.1-35.5,36.4-.5-.3,6.9,8.6,7.9,9,.5.2,41.5-35.4,45.5-40.8,3.7-5.1,13.7-26.7,16.7-26.2.2.5,3.9,8.4,7.3,19.9.1.2.1.4.2.6,2.4,8,2.2,16.8.9,26.6-1,7.4-6.5,19.5-9.8,25.4-.4.7-.3,2.1.1,3.1.3.6.6,1.1,1.1,1.3l12.1,4.5,2.8,1c2,.8,4.2.4,5.8-.8,1.3-.9,2.3-2.4,2.5-4.2,2.7-20.6,6.1-41.7,8.8-49.6,11.9-34.8-4.6-61-4.6-61,0,0-19.6,2.2-23.4,3.6h0Z"/>
  <path class="cls-16" d="m476.4,203.31l18.9-51.6,60.9,1-18,47.6-61.8,3Z"/>
  <path class="cls-11" d="m514.8,174.51c-1.9,3.7-1.3,7.8,1.3,9,2.6,1.3,6.1-.7,8-4.4s1.3-7.8-1.3-9c-2.6-1.3-6.2.7-8,4.4Z"/>
  <path class="cls-1" d="m477.8,77.01c-4.5-6.8-7.7-12.2-8.1-21.9-.3-6.4-1.7-15.1-6.1-19.4,4.6-12-.8-15.6-3-19.5-2.7-4.9-22.7-16.7-30.6-4.3-7.9,12.3-5.1,25.2-5.1,25.2.8-6.8,7.8-16,7.8-16,1.1,7.1,15.8,18.7,22.2,23.4-.1.1-.2.3-.2.4-3.6,5.2.9,10.4,1.7,15.9s-15.1,20.3,2.6,27.7c17.7,7.5,23.3-4.8,18.8-11.5h0ZM155.9,659.51s-.4,4.2-20,4.2-48.1-5.1-48.1-5.1l45.5-4.4s17.5-.9,22.6,5.3Z"/>
  <path class="cls-1" d="m106,661.01c-11.1,0-15.8,5.7-20.2,7.5s-8.8,4.5-8.8,4.4c2.5-4.9,6-5,7.8-6.6s1.3-.8-2.6-1.1c-2.2-.2-6.2,3.9-9,6.2-2.5,1.9-4,2.1-4,2.1,0,0,2.9-4.1,6.5-7.4,4.4-4,9.9-7.3,11.2-7.9,2.4-1,9.8-1.2,15-.5,6,.8,12.1,3.3,4.1,3.3Z"/>
  <path class="cls-1" d="m87.6,658.41s-8.5,2.2-10,3.4c-1,.8-5.4,5.5-5.4,5.5,0,0,3.2-.5,5-2.3,1.9-1.9,10.4-6.6,10.4-6.6h0Zm52.2-7.5s21.4,1.4,19.9,14.6c-.8,7.5-5.7,10.1-12.2,9.5-12-1-25.6-2.8-25.6-2.8l-6.1-20.5,24-.8h0Z"/>
  <path class="cls-1" d="m144.3,652.71l21-67.7s3.1-9.9,8.2-8.1c7.3,2.7,3.7,10.8,3.1,15.6-1.3,9.8-.4,14.1-7.2,37.7-4.2,14.6-7.8,31.4-11.4,41-2.5,6.6-6.8-2.9-13.3-5.5-12.2-4.9-.4-13-.4-13h0Zm1.6-104.5c4.1,11.8,16.8,17.9,28.5,13.6,11.6-4.3,17.8-17.4,13.7-29.2-4.1-11.8-16.8-17.9-28.5-13.6-11.6,4.3-17.8,17.4-13.7,29.2Z"/>
  <path class="cls-1" d="m122.9,549.31c6.4,9.6,19.2,12,28.5,5.4l-1.3-11.3c9.3-6.7,11.6-19.9,5.2-29.5l-4.4-6.5c-6.4-9.6-19.2-12-28.5-5.4l-4.2,3c-9.3,6.7-11.6,19.9-5.2,29.5l9.9,14.8Z"/>
  <path class="cls-14" d="m114.5,517.81c1.1,1.6,2.3,3.1,3.7,4.6,9.2,10,21.5,13.8,29.3,9.7,3.6,4.9,7.7,8.8,11.4,11.8,4.3,3.5,15.3,4.9,15.3,4.9,6.4,7-17.6,47.9-19.3,47.7-3.5-.3-8-22.9-4.7-31.1,1.5-3.7,3.9-8.1,3.2-10.1-2.5-6.9-6-5.7-6-5.7,0,0-4.6,5.4-8.2,5.2-3.7-.3-10.1-6.1-10.4-6.2-1.1-.9-2.1-2-3-3.3l-9.6-14.4c-2.5-4-3.1-8.8-1.7-13.1h0Z"/>
  <path class="cls-11" d="m187.9,690.11s-7.8,9.4-10.2,10.4c-3.2,1.4-13-1.6-13-1.6,0,0-2.6-43.1-5.6-59.9-3-16.8-7.4-21.2-7.6-26.5-.3-8.5-7.4-11.9-6.2-18.5,1.2-6.6,3.3-30.2,4-27.1,6.1,26.8,13.6,4.5,15.3,1,.9-1.9,23.3,122.2,23.3,122.2h0Z"/>
  <path class="cls-1" d="m152.4,558.91s-9.5,10.4-8.8,14.5c.6,4.1-4.1,16.9.6,34.7,5.3,20.3,8.1,34.1,9.1,47.4,1,13.3-3.5,25.5-1.7,41.8,1.4,12.8,4.3,13.5,4.3,13.5,0,0,5.7,1.4,9.7-3.6,4-4.9-2-48.5-4-59.3-2-10.9-8.4-36.3-10.1-43.8-2.1-9.2-1.7-18.6-1.6-21.3.5-9.5,1.7-15.4,2.7-19,.1-.5.6-6.1-.2-4.9h0Zm16.6,12.2c5.2,15,21.4,22.7,36.2,17.2,14.8-5.5,22.6-22.1,17.4-37.1s-21.4-22.7-36.2-17.2c-14.8,5.4-22.6,22.1-17.4,37.1Z"/>
  <path class="cls-7" d="m118.1,828.91l5.3,42.3-23,10.9-12.7,2.8,22.6-17.5-7.4-38.2,15.2-.3Z"/>
  <path class="cls-1" d="m124.9,877.61l-5,1.3-3.4-3.1-18.4,9.2-16.3,3.9s-.2-1.3.3-2c2-2.7,13.5-8.6,13.5-8.6,0,0,.2,3.9,1.8,4,1.6.1,15.7-7.3,19-9.3,5.6-3.5,6.7-5.8,7.1-5.5,1.2.6,1.4,10.1,1.4,10.1h0Z"/>
  <path class="cls-7" d="m62.6,770.11l-18.3,36-25.2-1.2-12.6-3.7,27.9-4.7,15.2-30.8,13,4.4Z"/>
  <path class="cls-1" d="m42.8,812.51l-5-1.2-1.6-4.4-22.7-.3-13.5-3.2s1.6-1.8,2.6-2.3c3-1.3,13.7-1.9,13.7-1.9,0,0-1.1,3.1.3,3.9,1.4.9,17,1.4,20.8,1.1,6.6-.5,8.5-1.9,8.7-1.5.7,1.4-3.3,9.8-3.3,9.8h0Z"/>
  <path class="cls-17" d="m196.1,662.41l-13.6,6.1.1,18.7-93.7-15.3s-8.9-2.9-14.6,11.8c-8.1,20.8-28.7,85.5-28.7,85.5l13,14.1,40.9-73.1s83.8,40.7,111.4,31.9c10.6-3.4,18.7-22.8,17.2-42.4-1.2-15.4-4.2-29.5-4.2-29.5l-27.8-7.8Z"/>
  <path class="cls-17" d="m184.2,741.71l-67.1-5,5.8,107.2-19.8.7-14.6-125.6s3.9-18.7,16.7-15.9c12.9,2.9,43.9,27.5,79,38.6Z"/>
  <path class="cls-8" d="m229.4,768.61s-35.2-39.5-44.3-61.8c-10.9-26.7-10-60.2-12-71.3-3.7-20.4-8.2-60-9-64.9-.9-4.9,2.2-10.4,2.2-10.4,0,0-2.3-14.8,4.3-13.2,9.5,2.3,18.9,7.5,22.2,9.1,6.2,2.8,18.9,77.4,19.6,81,2.6,13,12.1,24.8,18.9,36.9,16,28.7,20.1,62.6,20.1,62.6,0,0-2,24.8-22,32h0Z"/>
  <path class="cls-14" d="m193.1,665.31s-.3,4.8-22.7,3.7c-22.4-1.2-55.2-8.7-55.2-8.7l51.9-2.4s19.9.1,26,7.4h0Z"/>
  <path class="cls-14" d="m132.8,662.91c-10.7-.2-15.3,5.3-19.5,7s-8.5,4.2-8.5,4.2c2.4-4.7,5.8-4.8,7.6-6.3,1.7-1.5,1.3-.7-2.5-1.1-2.2-.2-6,3.7-8.7,5.9-2.4,1.9-3.9,2-3.9,2,0,0,2.8-4,6.3-7.2,4.3-3.8,9.5-7,10.8-7.5,2.3-.9,9.4-1,14.5-.2,5.7.8,11.6,3.4,3.9,3.2h0Z"/>
  <path class="cls-14" d="m114.9,660.01s-8.2,2-9.6,3.1c-1,.8-5.2,5.3-5.2,5.3,0,0,3-.5,4.8-2.2,1.8-1.6,10-6.2,10-6.2h0Z"/>
  <path class="cls-1" d="m175.2,660.01l33.2-17.5s.1,21.2.3,29.3c.2,8.1,3.6,19.5-2.8,21.2s-9.7.8-3.1,4.7c6.6,3.8,5.1,7.8,2.6,11.1s8.4,36.9,5.8,38.8c-10.3-13-21.4-29.1-26.2-40.8-6.1-15.2-8.5-32.6-9.8-46.8Z"/>
  <path class="cls-8" d="m185.9,651.51l-1.3-67.6s.1-21.1.5-27.3c.4-6.4,11.3,1.1,11.3,1.1,0,0,15.3,20.7,15.6,70.6.2,33.4-1.6,50.8-17,49.4-14.3-1.3-30.6-3.5-30.6-3.5l-7.1-18.5,28.6-4.2Z"/>
  <path class="cls-12" d="m182.5,687.21l-114.3-14.3.3-2.4,114.3,14.3-.3,2.4Z"/>
  <path class="cls-12" d="m132.4,678.41c-.2,1.9-1.7,3.3-3.3,3.1l-58.6-7.3c-1.6-.2-3.6-1.7-5-6.7l-22.6-58.5c.3-2.4,2.2-3.6,3.8-3l59.9,9.4c1.6.6,2.7,2,3.3,4.6l22.5,58.4Z"/>
  <path class="cls-12" d="m125,680.01l.6.1,57.2,7.2c-2.2.9-5.7,1.2-9.6.7l-47.9-6-.6-.1-47.9-6c-3.9-.5-7.2-1.7-9.2-3l57.4,7.1h0Z"/>
  <path class="cls-1" d="m185.9,651.51l-1.3-67.6s1-5.7,3-10.8c.5,7.4,3.9,60.7,4.3,67.7.5,7.6,6.7,8.4,8,10.9,1.4,2.4.2,2.9-4.4,2-4.5-1-2.9-.2-1.9,2.2,1,2.5-1.5,1.8-10.3-1.4-6.4-2.3-18.7,0-24.9,1.4l27.5-4.4h0Z"/>
  <path class="cls-3" d="m581.1,485.61c-11,2.9-31.3,13.1-35.6,30.6-6.4,26.3,6.4,64.8-13.8,102.6-6.5,12,111.7,28.2,111.7,28.2l22.8-132.8s-28.5-28.8-34.3-30.8c-12.1-4-28.8-3.6-50.8,2.2h0Z"/>
  <path class="cls-8" d="m666.3,514.31c4.1,10.6,14.5,73.7,2.9,88.6-1.3,1.7,6,4.4,4.7,12.2-.2,1.3-2.4,7.6-2.4,7.6l-9.4,2.5-20.5-23.7s8.3-12.9,19.2-61.8c3.2-14.4,4.6-27.8,5.5-25.4h0Z"/>
  <path class="cls-10" d="m588.7,589.71s9.9,26.1,33.8,33.1c4.1,1.2,6.7,5.8,4.7,7.3-2.6,1.9-6,2.3-12,2.3-12.5,0-29.5-4-41.2-15.8-17.4-17.4-22.9-25.4-21.1-34.1,1.6-8.9,35.8,7.2,35.8,7.2Z"/>
  <path class="cls-8" d="m548.9,507.41c-5.1,8.6-8,22.4-7.9,42.2,0,15.3,12.8,40.4,14.7,48.1.3,1.3,1.1,6.8,1.1,6.8l14.1,14.4,28.3-19.9-8.6-13.7-2.6.3s-1.6-7.6-1.2-10.5c.4-2.9-7.8-42.4-11.9-67.7-2.3-14.7-21-8.5-26,0h0Z"/>
  <path class="cls-1" d="m574.3,585.01l8.3-2.6,3.4-.9c.2,2.4,2.2,4,2.2,4l-6.5.8-7.5,2.4-8.8,6.3,8.9-10h0Z"/>
  <path class="cls-10" d="m620.7,622.71l14.4-4.1s4.1,5.7,3.3,7.1c-.8,1.4,0,9.8,0,9.8l-7,6.2-5.7-2s-.4-2.6,1.5-2.8c2-.3-1.3-1.7-2.3-2.3-1-.7-9.3-5.1-4.2-11.9Z"/>
  <path class="cls-13" d="m598.5,484.31c-1.6,4.7.8,10,5.4,11.6l8.2,3c4.6,1.7,9.6-.9,11.2-5.6l7.3-21.6c1.6-4.7-.8-10-5.4-11.7l-8.2-3c-4.6-1.7-9.6.9-11.2,5.6l-7.3,21.7Z"/>
  <path class="cls-10" d="m634.3,503.31c-.8,3.1-4,5-7,4.1l-24.7-7.1c-3-.9-4.8-4.1-4-7.3l10.1-37.9c.8-3.1,4-5,7-4.1l24.7,7c3,.9,4.8,4.1,4,7.3l-10.1,38Z"/>
  <path class="cls-16" d="m647.1,461.51c.2-.2-2.3-3-1-8.5,1.7-7.4-3.8-10.4-7.9-10.5-2.4-.1-10.5,3.8-14.8,5.1-4.3,1.3-3.9-.4-11.7-1.8-5.2-1-6.4,1.9-8.2,5.9-1.8,4.1-2,19.7-2,19.7.7,1,1.8,1.8,2.5,1s3.5-13.3,5.8-17c2.2-3.7,11.2,2.2,16.1,5.1,4.8,2.9,9.1,3.4,16.8,1.8.9,1,1.7,2.1,1.7,2.6,0,1-2.2,8.1-2.2,8.1,0,0,4.3-2.7,5.5-4.8.6-.7.8-4.1-.6-6.7h0Z"/>
  <path class="cls-10" d="m606.4,485.11c-.3,1-1.3,1.7-2.3,1.4l-5.3-1.5c-1-.3-1.6-1.4-1.3-2.4l2.7-10.1c.3-1,1.3-1.7,2.3-1.4l5.3,1.5c1,.3,1.6,1.4,1.3,2.4l-2.7,10.1Z"/>
  <path class="cls-16" d="m603.1,475.51s-4,14.9-5.3,19.9c-1.2,4.5-2.1,14.9,22.4,21.9,14.5,4.1,16.9-7.1,17.9-10.7.7-2.8-.1-11.9-1.2-13.9,0-.1-1.6,6.2-1.6,6.2,0,0-1.4-6.9-8.3-8.8-11.1-3.2-15.5,2.9-20.3,1.3-3.8-1.3-4.9-8.5-3.6-15.9h0Z"/>
  <path class="cls-10" d="m619.8,498.41l7.6,2.2c1,.3,2.1-.3,2.3-1.4l.3-1.1-11.3-3.2-.3,1.1c-.2,1.1.4,2.1,1.4,2.4Z"/>
  <path class="cls-5" d="m740.3,649.91c-3.5,10.1-65.1,47.2-85.8,45l-62.3,3.1c-52.9-6.7-78-91.9-78-91.9,2.1-21.4,54.3,9.6,72.9,19.2,29.4,15.2,48.1,16,48.1,16,19.7,2.1,42.5-13.7,67.4-14.2,27.3-.7,43.3,6.9,37.7,22.8h0Z"/>
  <path class="cls-12" d="m604.9,639.71q0-.1,0,0v-2.8l107.1-2v2.8l-.3.5c-1.3,2.4-3.8,2.8-6.6,2.9l-93.2,1.8c-2.8.1-5.3-.3-6.7-2.6l-.3-.6h0Z"/>
  <path class="cls-12" d="m630.7,639.61s0,.1,0,0l-.3.5c-.4.6-.9,1.1-1.5,1.4l-16.3.3c-2.7.1-5.1-.2-6.5-2.1l-.3-.4-.1-.1v-1.3l24.8-.5.2,2.2h0Zm14.5-1l53.5-1v-1.9l-53.6,1.1.1,1.8Zm-13.9-2.3l12.9-54.8c.3-1.4,1.7-2.6,3.1-2.7l75.2-1.4c1.4,0,2.2,1.1,1.9,2.6l-12.9,54.8-80.2,1.5h0Z"/>
  <path class="cls-10" d="m582.8,712.11c7.4,1.3,13.1-7.6,13.1-7.6l19.2-15.6-4.1-10.6-37.4,17.4s1.7,15.1,9.2,16.4h0Z"/>
  <path class="cls-17" d="m595.8,703.91s0,.9-1.4,5-3.2,5.5-5,6.1c-7.2,2.2-12.3,1.1-29.5,4.5s-22.4.8-27.4-7.4.2-14.7,8.6-15.3c12.1-.9,18.9.5,25.2-.5,6.6-1,7-2.6,10.9-5.1,3.6-2.3,7,11.5,3.6,14.7-3.1,2.8,12.5,3.2,15-2h0Z"/>
  <path class="cls-9" d="m592.2,711.81c-7.1,2.2-12.3,1.1-29.5,4.5s-22.4.8-27.4-7.4c-2.3-3.8-2.4-7.2-1.1-9.8-3.8,2.7-5.1,7.4-1.7,13,5,8.2,10.2,10.8,27.4,7.4,17.2-3.4,22.4-2.3,29.5-4.5,1.4-.4,2.8-1.4,4-3.7-.4.2-.8.4-1.2.5Z"/>
  <path class="cls-2" d="m595.8,704.21v-.2c0,.1-.1.2-.2.3.1-.1.2-.1.2-.1Z"/>
  <path class="cls-9" d="m558.7,710.31c-.5.2-1-.9-1.2-2.4-.3-3.1-1-6.1-2-9.2-.5-1.5-.5-2.8.1-3s1.6.9,2,2.4c1,3,1.6,6.1,1.9,9.1.2,1.5-.3,2.9-.8,3.1h0Zm5.3-1c-.6.1-1.1-.9-1.3-2.3-.3-2.9-1-5.8-2-8.6-.5-1.4-.5-2.6.2-2.7.6-.1,1.6,1,2.1,2.4.9,2.8,1.6,5.7,1.9,8.5.1,1.4-.3,2.6-.9,2.7h0Zm5.6-.2c-.6.1-1.2-1-1.4-2.5-.5-3-1.2-5.9-2.3-8.9-.5-1.5-.5-2.7.1-2.7.7,0,1.7,1.1,2.2,2.6,1.1,2.9,1.8,5.9,2.2,8.8.2,1.4-.2,2.6-.8,2.7h0Z"/>
  <path class="cls-1" d="m584.1,686.61s131.7-56.1,139.2-56.2c25.4-.2,19.6,26.4,6.7,39-15.2,14.8-130.8,41.9-130.8,41.9l-15.1-24.7h0Z"/>
  <path class="cls-10" d="m636.3,696.41l-36-35.4,15.4-15.7,39.2,42.8-18.6,8.3Z"/>
  <path class="cls-1" d="m643.7,668.61s-91.5-86.9-97.6-89.5c-20.9-8.8-33.8,15.1-33.1,23.4,1,10.7,93.9,97.7,93.9,97.7l36.8-31.6h0Z"/>
  <path class="cls-17" d="m697.9,699.11c2.1,2,2.5,8.1,2.5,8.1,0,0-30.5,12-41.2,12.2-2.8.1-7.8-1.1-12.6-2.5-.8-.2-2.7-2.4-3.5-2.6-1.5-.4-1.8,1-3,.6-3.2-1.1-5.6-2-5.7-2.2-6.5-14.2-4.3-21.2-4.3-21.2,0,0,14,4.2,11.6.9-5.1-7,9.6-14.1,12.8-10.4,13.2,14.9,37.2,11.2,43.4,17.1h0Z"/>
  <path class="cls-9" d="m699.6,702.11c-9.4,3.9-29.1,11.8-33,12.1-16.1,1.2-27.3-4.7-34.8-8.2.7,2,1.5,4.3,2.6,6.7.1.2,2.4,1.1,5.7,2.2,1.3.4,1.6-1.1,3-.6.8.2,2.6,2.4,3.5,2.6,4.8,1.4,9.8,2.5,12.6,2.5,10.7-.2,41.2-12.2,41.2-12.2,0,0,0-2.8-.8-5.1Zm-21.5-9.2c.3.6-.9,1.2-2.6,1.6-3.5.7-6.9,1.8-10.3,3.2-1.7.7-3.2.9-3.4.3-.2-.6.9-1.7,2.6-2.4,3.3-1.4,6.8-2.4,10.2-3.1,1.6-.5,3.2-.2,3.5.4Zm-6.9-2.5c.3.6-.9,1.4-2.6,1.9-3.4,1-6.7,2.4-10,4.1-1.6.8-3.1,1.1-3.3.5s.9-1.9,2.5-2.7c3.2-1.6,6.5-3,9.9-3.9,1.7-.7,3.3-.5,3.5.1h0Zm-6.6-2.2c.2.6-.9,1.5-2.5,2.1-3.3,1.3-6.5,2.9-9.6,4.8-1.5,1-2.9,1.3-3.1.6-.2-.6.8-2,2.4-3,3.1-1.9,6.3-3.5,9.5-4.7,1.6-.5,3.1-.4,3.3.2h0Z"/>
</svg>