<svg version="1.2" xmlns="http://www.w3.org/2000/svg" viewBox="0 0 666 243" width="666" height="243">
	<title>SSLOGO_LIGHT-svg</title>
	<style>
		.s0 { fill: #f8f8f8 } 
		.s1 { fill: #f80802 } 
		.s2 { fill: #f7f7f7 } 
		.s3 { fill: #fafafa } 
		.s4 { fill: #f6f6f6 } 
		.s5 { fill: #f9f9f9 } 
		.s6 { fill: #f5f5f5 } 
		.s7 { fill: #f2f2f2 } 
		.s8 { fill: #f4f4f4 } 
		.s9 { fill: #f0f0f0 } 
		.s10 { fill: #fdfdfd } 
		.s11 { fill: #efefef } 
	</style>
	<path id="Layer" fill-rule="evenodd" class="s0" d="m137.1 107.9c-15.5-17.4-8-46.8 14.8-53.1 12.7-3.5 24.5-1.2 34.4 8.8 16 16.2 32.6 31.9 48.9 47.8 4.4 4.2 4.2 13.3 0.1 17.7-18.4 19-36.8 38-55.2 57-14.3 14.9-28.7 29.7-43.1 44.5-5.8 6-13.2 6.3-19.4 0.5-14.4-13.6-28.5-27.4-43.7-42 7.4 0 13.4-0.2 19.4 0.1 1.6 0.1 3.4 1.1 4.6 2.3q12.5 11.8 24.8 24c2.8 2.8 4.7 2.9 7.6-0.3 6.8-7.3 14.1-14.2 21.1-21.2 1-1.1 1.9-2.3 3.1-3.8-14.7-3.8-22.4-16.1-32.7-25.1-0.9-0.8-1.4-2.6-1.4-3.9-0.2-6-0.1-11.9-0.1-18.9 3.1 2.8 5.8 5.2 8.4 7.8 6.8 6.6 13.5 13.4 20.3 19.9 6 5.6 16.4 6.6 22.2 2.5 7.5-5.4 11-14.5 7.1-22.3-2.3-4.6-6.7-8.2-10.4-11.9-10.1-10.1-20.4-20.1-30.8-30.4zm54.1 34.4q1.2 2.4 2.3 4.8c8.9-8 17.8-16.1 26.6-24.2 2.5-2.2 1.1-4.2-0.7-6-15.3-14.8-30.6-29.6-46-44.3-6.4-6.1-18.1-5.2-24.4 1.4-6.3 6.7-6.3 18.2 0.1 24.4 9 8.9 18.3 17.5 27.2 26.5 5.2 5.2 9.8 11.1 14.9 17.4zm2.3 4.8q-0.1 0.2-0.2 0.3 0.5 0.7 1.1 1.4-0.4-0.8-0.9-1.7z"/>
	<path id="Layer" fill-rule="evenodd" class="s1" d="m83.1 186c-8.3 0.3-14.9-2.8-20.4-7.9-12.5-11.7-24.6-23.8-36.9-35.8-4.2-4-8.3-8.2-12.6-12-6.1-5.5-6.8-14.5-1.1-20.5 11.6-12.3 23.5-24.4 35.3-36.7 9.9-10.3 19.7-20.7 29.7-30.9q17-17.5 34.4-34.8c3.8-3.8 12.7-3.7 16.6 0.1 14 13.3 27.8 26.8 41.6 40.3 0.5 0.4 0.7 1 1.1 1.6-6.2 0.2-12.1 0.7-18 0.6-1.7 0-3.5-1.5-4.9-2.8-8.3-7.9-16.6-15.9-24.7-24-2.5-2.4-4.6-2.5-6.8-0.2-8.2 8.5-16.4 17-25.4 26.3 14.7 3.9 22.3 15.7 32.1 24.6 1.6 1.5 2.6 4.4 2.7 6.8 0.4 5.2 0.2 10.5 0.2 16.6-4.1-3.9-8.1-7.5-12-11.2-5.6-5.4-11.2-10.9-16.8-16.3-7.8-7.5-17.7-7.4-25.3 0.2-6.7 6.7-6.9 18.4 0.1 25.2 12 11.7 24.4 23.1 36.5 34.7 9.5 9.2 12.6 30.8 2.4 43.3-7.1 8.6-15.8 13.7-27.8 12.8zm-42.9-50.7c10.7 10.3 21.2 20.7 32 30.8 8.3 7.8 17.9 7 26.2-1.7 6-6.3 5.3-17.3-1.6-24.3-2.6-2.6-5.4-4.9-7.9-7.7-12.2-13.9-29.4-23.4-36.6-41-8.5 8.2-17.1 16.5-25.6 24.8-2 2-2.1 4 0.1 6 4.4 4.2 8.6 8.4 13.4 13.1z"/>
	<path id="Layer" fill-rule="evenodd" class="s2" d="m542.8 117.5c1.3-3 2.9-2.9 5.2-1.5 4.6 2.9 9.6 3.8 14.8 1.9 6.1-2.2 8.2-6.7 7-13.8-11 6.6-21 6-27.3-1.6-5.5-6.7-5.1-20.5 0.8-27 6.4-7.1 16.5-7.3 26.7-0.4 0.2-1.5 0.4-2.9 0.6-4.6 2.7 0 5.3 0 8.5 0 0 11.2 0.1 22.4-0.1 33.7 0 3.6-0.2 7.5-1.6 10.7-3.7 8.3-13.9 12.9-23.4 10.9-4.3-1-8.4-2.9-13.2-4.5 0.8-1.6 1.3-2.5 2-3.8zm14.9-40.4c-1.4 0.4-2.9 0.6-4.3 1.2-5 2.3-7.5 8-6.3 14.3 1.1 5.5 5.7 9.4 11.3 9.5 6.5 0 11.5-4.7 11.9-11.5 0.5-8.1-3.4-12.5-12.6-13.5z"/>
	<path id="Layer" fill-rule="evenodd" class="s2" d="m327.2 111.2c-4.6-1.4-8.9-2.9-13.4-4.4 0 5.6 0 12.1 0 18.8-3.3 0-6 0-8.9 0 0-18.3 0-36.6 0-55.1 2.8 0 5.5 0 8.5 0 0.1 1.7 0.3 3.3 0.4 4 4.1-1.5 8.2-4 12.4-4.2 4.2-0.2 9 1.1 12.8 3.1 6.4 3.5 9.7 15 7.5 22.7-2.8 10.2-8.5 14.7-19.3 15.1zm3-8.2c7.1-3.7 9.8-11.6 6.5-19-2.4-5.5-9.5-8.1-15.7-5.8-5.8 2.1-8.9 9.7-6.9 16.9 2 6.7 7.5 9.6 16.1 7.9z"/>
	<path id="Layer" fill-rule="evenodd" class="s0" d="m442.4 93.5c-0.6-15.9 7.3-24.7 21.1-23.3 4.2 0.4 8.1 2.9 12.4 4.5 0-5.9 0-13.1 0-20.4 3.2 0 5.8 0 8.7 0 0 18.8 0 37.5 0 56.5-2.7 0-5.4 0-8.6 0 0-1.8 0-3.5 0-5.5-15.8 11.1-30.3 6-33.6-11.8zm31.4-10.6c-4.3-5.1-9.8-6.7-15.4-4.4-4.9 1.9-7.7 7.2-7.3 13.4 0.5 6 4.2 10.8 9.6 11.8 4.7 0.8 8.9 0.1 12.1-4 4.1-5.1 4.3-10.5 1-16.8z"/>
	<path id="Layer" class="s2" d="m257 141.2c6.3-8.5 15-9.2 24-7.7 4.1 0.7 8 2.8 12.6 4.4-1.3 3.2-2.4 5.6-3.6 8.4-3.1-1.3-5.7-2.8-8.5-3.4-3.5-0.7-7.3-1.3-10.7-0.8-1.9 0.3-4.8 2.9-4.9 4.5-0.1 2.1 1.8 4.8 3.7 6.2 2.1 1.6 5.1 2.1 7.8 3 2.2 0.8 4.5 1.4 6.6 2.3 7.7 3.2 10.5 7.4 10 14.8-0.3 6.3-4.4 11.3-11.7 13.2-11.1 3-21 0.4-29.9-7.3 1.2-2.5 2.4-5 3.2-6.7 5.5 2.3 10.6 4.6 15.8 6.4 1.9 0.6 4.3 0.1 6.4-0.1 3.2-0.4 6.5-1.9 6-5.4-0.4-2.6-2.6-5.8-4.8-7.1-4-2.2-8.8-2.9-13.2-4.5-9.6-3.7-12.3-9.9-8.8-20.2z"/>
	<path id="Layer" class="s2" d="m292.1 88.1c4.9 11-0.1 20.4-11.8 22.7-9.7 2-20.3-1.1-27.9-8.3 1.2-2.3 2.5-4.8 3.3-6.4 5.5 2.3 10.6 4.7 15.9 6.4 2 0.7 4.8 0.5 6.7-0.4 2.3-1.1 5.2-3.3 5.4-5.3 0.2-2.1-1.9-5.4-3.9-6.6-3.7-2-8.2-2.7-12.2-4.2-5-1.8-10-3.8-11.6-9.8-2.3-8.3 1.8-15.7 10.4-18.1 9.4-2.6 18.4-1.3 26.9 4.5-1 2.4-2.1 4.8-3.4 7.8-2.6-1.2-5-2.6-7.5-3.4-2.4-0.8-4.9-1.4-7.3-1.4-3.8-0.1-8.3-0.5-9.3 4.5-1 5.1 2.9 6.7 6.9 8.2 6.7 2.5 14.4 3 19.4 9.8z"/>
	<path id="Layer" class="s3" d="m600.3 60.3c0 5.5 0 10.6 0 17 4.7-5.5 9.6-7.5 15.6-7.3 8.4 0.2 14.1 4.8 14.6 13.2 0.6 9.1 0.2 18.2 0.2 27.6-2.9 0-5.5 0-8.8 0 0-6.8 0.1-13.7 0-20.7 0-7.5-3-11.4-9-11.9-6.5-0.4-11.8 4-12.3 11.1-0.5 7.1-0.1 14.2-0.1 21.5-3.1 0-5.8 0-8.9 0 0-9.5 0-18.9 0-28.4 0-9.3 0-18.6 0-28.1 3 0 5.7 0 8.7 0 0 1.9 0 3.7 0 6z"/>
	<path id="Layer" class="s0" d="m402.7 153.2c0-2.4 0-4.4 0-6.7 2.9 0 5.4 0 8.4 0 0 13.3 0 26.6 0 40.3-2.6 0-5.1 0-8.1 0-0.1-1.7-0.4-3.4-0.7-6.5-4.5 5.5-9.7 7.4-15.8 6.9-6.7-0.6-12.1-4.6-12.5-11.3-0.6-9.7-0.2-19.5-0.2-29.5 2.6 0 5.2 0 8.3 0 0 7 0 13.9 0 20.9 0.1 7.7 2.8 11.3 8.6 11.7 6.4 0.4 11.1-3.7 11.8-10.9 0.4-4.7 0.2-9.6 0.2-14.9z"/>
	<path id="Layer" fill-rule="evenodd" class="s2" d="m319.5 187.2c-13.3-1.6-20.8-11.4-18.8-24.2 1.8-12 12.7-19.1 25.6-16.7 10.8 2 17.4 10.8 16.6 22-0.8 10.8-8.6 18.4-19.5 18.9-1.2 0-2.4 0-3.9 0zm-2.9-32.6c-6.5 3.8-8.8 9.4-6.8 16.3 1.5 5.5 5.9 8.9 11.6 9 6 0.1 10.6-3.2 12.1-9 2.4-9.5-3.1-19.6-16.9-16.3z"/>
	<path id="Layer" fill-rule="evenodd" class="s4" d="m499.8 186.9c-10.2 1.2-18.8-0.7-23.9-10.1-5.9-10.8-1.6-24.3 8.8-28.8 11.9-5.2 25.5-0.5 29.6 10.2 4.9 12.6-1.1 24.7-14.5 28.7zm-2.1-7.3c6.8-2.4 10.1-7.9 9.1-15.1-0.8-5.9-4.1-9.6-9.5-10.6-6.4-1.1-11.2 1.3-14 6.9-4 8.2 1.8 21 14.4 18.8z"/>
	<path id="Layer" fill-rule="evenodd" class="s5" d="m361.9 96.2c6.2 9.4 14.1 10.5 23.5 3.4q2.2 2.4 4.3 4.7c-8.7 8.3-20.6 9.4-29.5 3-7.5-5.5-10.3-17.3-6.1-26.1 4.3-9 14.4-13.2 25.4-10.4 9.1 2.3 13.1 9.5 12.4 23.2-8.9 0-17.8 0-26.7 0.1-1.1 0-2.3 1.1-3.3 2.1zm13.1-19.1c-8.6-0.1-12.5 2.9-13.5 10.1 7.5 0 15 0 22.6 0 0-6-3.4-8.5-9.1-10.1z"/>
	<path id="Layer" fill-rule="evenodd" class="s0" d="m403.8 74.8c4.1-1.8 7.8-4.2 11.7-4.6 14.9-1.5 22.3 6.8 21.2 23.7-9.9 0-20 0-30.2 0 3.5 11.2 13.5 13.5 23 6.3q2.6 2 5 3.9c-6.4 8.6-21.5 9.4-30 2.8-8.1-6.4-9.9-19.2-3.7-28.3 0.9-1.3 1.9-2.4 3-3.8zm16.2 2.3c-8.6-0.2-12 2.3-13.6 10.2 7.5 0 14.9 0 22.7 0-0.4-5.7-3.2-8.8-9.1-10.2z"/>
	<path id="Layer" class="s2" d="m563.9 166.1c0 7.1 0 13.7 0 20.6-3 0-5.7 0-8.9 0 0-7 0-13.9 0-20.9 0-7.8-2.8-11.3-9.2-11.6-6.5-0.3-11.7 4.5-12 11.4-0.2 3.5-0.1 7-0.1 10.5 0 3.5 0 6.9 0 10.6-3 0-5.6 0-8.5 0 0-13.2 0-26.6 0-40.2 2.6 0 5.1 0 8.2 0 0.2 1.9 0.4 3.9 0.7 6.8 3.6-5.4 8.3-7.3 13.9-7.3 9.9-0.1 15.6 5.2 15.9 15.1 0.1 1.5 0 3 0 5z"/>
	<path id="Layer" class="s4" d="m574.2 163.4c-3.3-8.9-0.2-14.8 8.4-17 6.2-1.6 13.6-0.2 19.1 3.8-0.8 1.9-1.7 3.7-2.5 5.5-4.4-0.9-8.5-2.2-12.7-2.5-1.7-0.1-3.5 2.1-5.3 3.2 1.2 1.6 2.2 3.8 3.8 4.6 2.9 1.5 6.2 2.1 9.4 3.2 4.9 1.7 8.5 6.5 8.4 11.1-0.1 4.9-3.6 9.5-8.8 10.9-8.3 2.3-16 1.2-23.2-4.7 0.9-1.9 1.8-3.7 2.3-4.6 5.7 1.2 10.7 2.5 15.8 3 1.6 0.2 4.4-1.8 4.6-3.2 0.3-1.4-1.5-4-3-4.8-2.9-1.5-6.3-1.9-9.3-3.3-2.5-1.2-4.6-3.2-7-5.2z"/>
	<path id="Layer" class="s6" d="m652.7 62.7c0 3.2 0 6 0 9.2 4.3 0 8.1 0 12 0 0 2.1 0 3.9 0 6.2-3.7 0-7.5 0-11.8 0 0 7.7-0.1 14.9 0.2 22.1 0 1.1 2.3 2.7 3.8 2.9 2 0.2 4.1-0.6 6.2-0.9 2.9 6.4 2 7.9-4.9 8.9-8.9 1.2-14.2-3.2-14.3-12.1-0.1-6.7 0-13.3 0-20.2-1.8-0.2-3.4-0.5-5.3-0.7 0-1.9 0-3.8 0-6 1.5-0.2 3.1-0.4 5.1-0.6 0-3.4 0-6.9 0-11.4 3.4 0.8 6.2 1.5 9 2.6z"/>
	<path id="Layer" class="s0" d="m444.7 147.8c1.2 1.9 2 3.8 3.1 6.4-5 0-8.7 0-12.8 0 0 7.3-0.1 14.1 0 20.9 0 3.3 1.9 4.4 4.9 4.1 1.7-0.2 3.4-0.7 5.4-1.1 0.7 2.1 1.4 4.1 2.1 6.3-5.4 3.2-10.7 4.1-16 1.5-4.9-2.4-5.5-7.4-5.4-12.4 0.1-6.2 0-12.3 0-18.7-1.9-0.3-3.6-0.5-5.6-0.8 0-1.8 0-3.6 0-5.8 1.5-0.2 3.3-0.4 5.5-0.7 0-3.3 0-6.7 0-10.4 3.1 0 5.8 0 9 0 0 3.5 0 6.9 0 10.7 3.4 0 6.4 0 9.8 0z"/>
	<path id="Layer" class="s7" d="m507.2 98c0 4.5 0 8.4 0 12.7-2.9 0-5.6 0-8.6 0 0-18.7 0-37.4 0-56.4 2.8 0 5.4 0 8.6 0 0 14.4 0 28.8 0 43.7z"/>
	<path id="Layer" class="s8" d="m352.2 139.1c0-3.1 0-5.8 0-8.7 3 0 5.6 0 8.5 0 0 18.5 0 37.2 0 56.3-2.4 0-5.1 0-8.5 0 0-15.7 0-31.4 0-47.6z"/>
	<path id="Layer" class="s9" d="m459.1 146.1c1.9 0 3.3 0 4.9 0 0 13.8 0 27.1 0 40.7-2.6 0-5.2 0-8.6 0 0-3.7 0-7.4 0-11.2 0-8.6 0.1-17.3 0-26-0.1-2.4 0.4-3.9 3.7-3.5z"/>
	<path id="Layer" class="s10" d="m529.4 93c0 6.1 0 11.8 0 17.7-2.8 0-5.4 0-8.3 0 0-13.3 0-26.7 0-40.3 2.7 0 5.3 0 8.3 0 0 7.5 0 14.8 0 22.6z"/>
	<path id="Layer" class="s11" d="m526.6 63.7c-2.4-1.1-5.3-2-6.2-3.8-0.7-1.3 0.7-5 2.2-5.7 1.6-0.7 5.3-0.2 6.3 1.2 2.4 2.9 1.9 6.2-2.3 8.3z"/>
	<path id="Layer" class="s7" d="m459.2 139.9c-4.6-1.4-5.5-4.7-3.7-7.9 0.9-1.5 4.3-2.5 6.2-2.1 3.3 0.7 4.2 3.9 2.8 6.7-0.8 1.5-3.3 2.2-5.3 3.3z"/>
</svg>